{"title":"Godzilla,Mothra &amp; King Ghidorah - Giant Monsters All Out Attack","uid":5617088,"size":1949910786,"categoryP":"video","categoryS":"movies","magnet":"?xt=urn:btih:78e2b3d74730a2226e3793e8805fccccdb3e3fc1&amp;dn=Godzilla%2CMothra+%26+King+Ghidorah+-+Giant+Monsters+All+Out+Attack&amp;tr=udp%3A%2F%2Ftracker.openbittorrent.com%3A80&amp;tr=udp%3A%2F%2Fopen.demonii.com%3A1337&amp;tr=udp%3A%2F%2Ftracker.coppersurfer.tk%3A6969&amp;tr=udp%3A%2F%2Fexodus.desync.com%3A6969","seeders":1,"leechers":0,"uploader":"Beebe85","files":-1,"time":1276105839,"description":"Godzilla, Mothra and King Ghidorah - Giant Monsters All Out Attack (2001) DVDRip\n\nOriginal Japanese version.\n &lt;a href=&quot;\nhttp://www.imdb.com/title/tt0279112/&quot; rel=&quot;nofollow&quot; target=&quot;_NEW&quot;&gt;\nhttp://www.imdb.com/title/tt0279112/&lt;/a&gt;\n\n\n\nGeneral\nComplete name                    : D:Godzilla,Mothra &amp; King Ghidorah - Giant Monsters All Out AttackDVD_VIDEO.Title1.avi\nFormat                           : AVI\nFormat/Info                      : Audio Video Interleave\nFile size                        : 1.81 GiB\nDuration                         : 1h 45mn\nOverall bit rate                 : 2 460 Kbps\nMovie name                       : DVD_VIDEO.Title1.DVDRip\nWriting application              : Lavf52.33.0\nOriginal source form/Name        : DVD_VIDEO\n\nVideo\nID                               : 0\nFormat                           : AVC\nFormat/Info                      : Advanced Video Codec\nFormat profile                   : &lt;a class=&quot;__cf_email__&quot; href=&quot;/cdn-cgi/l/email-protection&quot; data-cfemail=&quot;a9ebc8daccc5c0c7cce9e598879a&quot;&gt;[email&amp;#160;protected]&lt;/a&gt;&lt;script cf-hash='f9e31' type=&quot;text/javascript&quot;&gt;\n/* &lt;![CDATA[ */!function(){try{var t=&quot;currentScript&quot;in document?document.currentScript:function(){for(var t=document.getElementsByTagName(&quot;script&quot;),e=t.length;e--;)if(t[e].getAttribute(&quot;cf-hash&quot;))return t[e]}();if(t&amp;&amp;t.previousSibling){var e,r,n,i,c=t.previousSibling,a=c.getAttribute(&quot;data-cfemail&quot;);if(a){for(e=&quot;&quot;,r=parseInt(a.substr(0,2),16),n=2;a.length-n;n+=2)i=parseInt(a.substr(n,2),16)^r,e+=String.fromCharCode(i);e=document.createTextNode(e),c.parentNode.replaceChild(e,c)}}}catch(u){}}();/* ]]&gt; */&lt;/script&gt;\nFormat settings, CABAC           : No\nFormat settings, ReFrames        : 1 frame\nCodec ID                         : H264\nDuration                         : 1h 45mn\nBit rate                         : 2000 Kbps\nWidth                            : 800 pixels\nHeight                           : 340 pixels\nDisplay aspect ratio             : 2.35:1\nFrame rate                       : 29.970 fps\nResolution                       : 24 bits\nColorimetry                      : 4:2:0\nScan type                        : Progressive\nBits/(Pixel*Frame)               : 0.245\nStream size                      : 1.47 GiB (81%)\nWriting library                  : x264 core 67\n\n\nAudio\nID                               : 1\nFormat                           : AC-3\nFormat/Info                      : Audio Coding 3\nCodec ID                         : 2000\nDuration                         : 1h 45mn\nBit rate mode                    : Constant\nBit rate                         : 448 Kbps\nChannel(s)                       : 6 channels\nChannel positions                : Front: L C R, Surround: L R, LFE\nSampling rate                    : 48.0 KHz\nStream size                      : 338 MiB (18%)\nAlignment                        : Aligned on interleaves\nInterleave, duration             : 32 ms (0.96 video frame)\nInterleave, preload duration     : 32 ms\n\nSubtitles: English, French","torrent":{"xt":"urn:btih:78e2b3d74730a2226e3793e8805fccccdb3e3fc1","amp;dn":"Godzilla%2CMothra+%26+King+Ghidorah+-+Giant+Monsters+All+Out+Attack","amp;tr":["udp%3A%2F%2Ftracker.openbittorrent.com%3A80","udp%3A%2F%2Fopen.demonii.com%3A1337","udp%3A%2F%2Ftracker.coppersurfer.tk%3A6969","udp%3A%2F%2Fexodus.desync.com%3A6969"],"infoHash":"78e2b3d74730a2226e3793e8805fccccdb3e3fc1","infoHashBuffer":{"type":"Buffer","data":[120,226,179,215,71,48,162,34,110,55,147,232,128,95,204,204,219,62,63,193]},"announce":[],"urlList":[]}}